# xmcd CD database file
#
# Track frame offsets:
#	150
#	12473
#	25064
#	34165
#	44384
#	54338
#	65933
#	76867
#	86891
#	98238
#	110255
#	120950
#	128612
#	138464
#	149589
#	157788
#	167274
#	177013
#
# Disc length: 2517 seconds
#
# Revision: 0
# Processed by: cddbd v1.5.2PL0 Copyright (c) Steve Scherf et al.
# Submitted via: CDex 1.51
#
DISCID=e309d312
DTITLE=Johnny Cash - The Collection
DYEAR=2006
DGENRE=Country
TTITLE0=I Walk The Line
TTITLE1=Folsom Prison Blues
TTITLE2=Blue Train
TTITLE3=There You Go
TTITLE4=Hey Porter
TTITLE5=So Doggone Lonesome
TTITLE6=Cry Cry Cry
TTITLE7=Get Rhythm
TTITLE8=Big River
TTITLE9=Give My love To Rose
TTITLE10=Train Of Love
TTITLE11=Hey Good Looking
TTITLE12=Ballad Of A Teenage Queen
TTITLE13=Oh Lonesome Me
TTITLE14=Guess Things Happen That Way
TTITLE15=It's Just About Time
TTITLE16=Rock Island Line
TTITLE17=Thanks A Lot
EXTD=YEAR: 2006
EXTT0=
EXTT1=
EXTT2=
EXTT3=
EXTT4=
EXTT5=
EXTT6=
EXTT7=
EXTT8=
EXTT9=
EXTT10=
EXTT11=
EXTT12=
EXTT13=
EXTT14=
EXTT15=
EXTT16=
EXTT17=
PLAYORDER=
